#!OML:ASF H:\Terrain\Patient Classification 1\Walking\liu\liu.ASF
:FULLY-SPECIFIED
:DEGREES
96
root 9.40242 16.3004 -23.768 3.44876 -2.96794 3.90082
lowerback -7.11365 -1.89653 -4.78231
upperback -0.289785 -2.22604 2.19422
thorax 3.96427 -1.21529 4.74311
lowerneck -21.1577 -4.96505 -12.7648
upperneck 19.852 -5.57574 11.3158
head 10.5617 -2.2223 5.36028
rclavicle 7.09413e-015 -2.70347e-014
rhumerus -43.3795 11.8609 -87.007
rradius 38.4668
rwrist -21.5339
rhand -30.2615 -23.2346
rfingers 7.12502
rthumb -3.57002 -53.1845
lclavicle 7.09413e-015 -2.70347e-014
lhumerus -20.696 -20.942 87.3562
lradius 34.467
lwrist 8.55567
lhand -15.1365 -25.0832
lfingers 7.12502
lthumb 11.0331 4.60683
rfemur -32.6686 3.33063 16.1138
rtibia 47.7286
rfoot -20.9514 -11.4054
rtoes -18.7954
lfemur -5.98195 1.17489 -29.3552
ltibia 22.1725
lfoot -18.4675 7.1872
ltoes -0.805324
97
root 9.40665 16.2928 -23.653 3.3379 -2.32564 3.81586
lowerback -6.97427 -2.06944 -4.61442
upperback -0.285972 -2.47509 2.17198
thorax 3.91133 -1.33448 4.59984
lowerneck -21.0382 -4.92334 -12.6237
upperneck 19.7564 -5.5519 11.2405
head 10.4944 -2.21187 5.30847
rclavicle -1.28092e-014 2.8625e-014
rhumerus -43.5016 11.8454 -87.1022
rradius 38.2832
rwrist -21.7116
rhand -30.6228 -23.9346
rfingers 7.12502
rthumb -3.91891 -53.8783
lclavicle -1.28092e-014 2.8625e-014
lhumerus -20.563 -21.3389 87.3059
lradius 34.9489
lwrist 8.70795
lhand -15.5568 -25.3211
lfingers 7.12502
lthumb 10.6277 4.39014
rfemur -32.9628 3.40832 15.9753
rtibia 46.344
rfoot -20.7959 -10.6863
rtoes -18.6273
lfemur -5.10329 0.469408 -29.318
ltibia 21.5154
lfoot -18.4381 7.38452
ltoes -0.897712
98
root 9.40792 16.2857 -23.5332 3.26421 -1.84154 3.62841
lowerback -6.90106 -2.14066 -4.32798
upperback -0.332628 -2.59652 2.19131
thorax 3.82341 -1.38666 4.44695
lowerneck -20.6577 -4.95474 -12.7586
upperneck 19.74 -5.62315 11.3338
head 10.4351 -2.25532 5.35479
rclavicle 2.67536e-014 1.98785e-014
rhumerus -43.8978 11.906 -87.1715
rradius 38.2772
rwrist -21.9526
rhand -31.0327 -23.4218
rfingers 7.12502
rthumb -4.31473 -53.3579
lclavicle 2.67536e-014 1.98785e-014
lhumerus -20.5373 -21.6008 87.3761
lradius 35.5239
lwrist 8.90749
lhand -15.2195 -25.3068
lfingers 7.12502
lthumb 10.953 4.3875
rfemur -33.3193 3.68706 15.9529
rtibia 44.9726
rfoot -20.5823 -10.3047
rtoes -18.6008
lfemur -4.21003 0.107612 -29.1446
ltibia 20.8111
lfoot -18.4373 7.452
ltoes -1.71543
99
root 9.40697 16.2824 -23.4066 3.2843 -1.42549 3.63606
lowerback -7.03595 -2.23153 -4.27076
upperback -0.386366 -2.71723 2.19336
thorax 3.85394 -1.44511 4.3999
lowerneck -20.3661 -4.92913 -12.9857
upperneck 19.8791 -5.59387 11.4577
head 10.4379 -2.25491 5.44977
rclavicle 1.63e-014 -5.56597e-015
rhumerus -44.0643 11.8533 -87.0682
rradius 38.0283
rwrist -22.084
rhand -31.0362 -22.9776
rfingers 7.12502
rthumb -4.31808 -52.9135
lclavicle 1.63e-014 -5.56597e-015
lhumerus -20.5728 -21.9135 87.5344
lradius 36.1173
lwrist 9.45976
lhand -14.8537 -25.0627
lfingers 7.12502
lthumb 11.3058 4.61263
rfemur -33.7827 4.27047 15.6165
rtibia 43.6977
rfoot -20.6221 -10.0057
rtoes -17.3672
lfemur -3.29834 0.151994 -29.1207
ltibia 19.9649
lfoot -18.4065 7.13031
ltoes -1.47996
100
root 9.40594 16.2798 -23.2763 3.4151 -1.10117 3.81966
lowerback -7.2956 -2.3492 -4.45783
upperback -0.424535 -2.84769 2.16298
thorax 3.98206 -1.51497 4.4512
lowerneck -20.3777 -4.87676 -13.0895
upperneck 20.1079 -5.51654 11.5102
head 10.5165 -2.2229 5.50762
rclavicle 1.15373e-014 6.36111e-015
rhumerus -43.9646 11.6733 -86.8664
rradius 37.5836
rwrist -21.9128
rhand -30.5367 -22.8958
rfingers 7.12502
rthumb -3.83576 -52.841
lclavicle 1.15373e-014 6.36111e-015
lhumerus -20.6005 -22.3334 87.6428
lradius 36.6557
lwrist 10.089
lhand -15.0138 -25.0718
lfingers 7.12502
lthumb 11.1514 4.61185
rfemur -34.379 4.95712 15.0166
rtibia 42.4912
rfoot -20.7599 -9.52942
rtoes -15.7749
lfemur -2.41873 0.329533 -29.2355
ltibia 18.9093
lfoot -18.2244 6.57763
ltoes -0.256495
101
root 9.40804 16.2753 -23.1469 3.4765 -0.781887 4.02471
lowerback -7.47953 -2.38137 -4.59302
upperback -0.392055 -2.86597 2.03457
thorax 4.12127 -1.52894 4.38403
lowerneck -20.4056 -5.01018 -13.0808
upperneck 20.2436 -5.70075 11.4525
head 10.5954 -2.31335 5.45953
rclavicle 2.36492e-014 5.56597e-015
rhumerus -44.1059 11.408 -86.812
rradius 37.509
rwrist -21.4468
rhand -30.1924 -23.7337
rfingers 7.12502
rthumb -3.50325 -53.6846
lclavicle 2.36492e-014 5.56597e-015
lhumerus -20.5909 -23.1408 87.7094
lradius 37.2336
lwrist 10.6252
lhand -15.4531 -25.5062
lfingers 7.12502
lthumb 10.7278 4.19985
rfemur -34.8909 5.38813 14.4508
rtibia 41.286
rfoot -20.8412 -9.03251
rtoes -16.9412
lfemur -1.32549 0.360182 -29.408
ltibia 17.5774
lfoot -17.8831 6.30262
ltoes -0.751368
102
root 9.41057 16.2821 -23.0203 3.34563 -0.424719 3.9985
lowerback -7.50775 -2.3467 -4.39157
upperback -0.307229 -2.82936 1.9018
thorax 4.20449 -1.50888 4.13265
lowerneck -20.2016 -5.16168 -12.9042
upperneck 20.1868 -5.93217 11.2101
head 10.5554 -2.43848 5.29874
rclavicle -1.81779e-014 -3.97569e-015
rhumerus -44.2958 10.917 -86.7534
rradius 37.5783
rwrist -21.1117
rhand -29.6592 -24.369
rfingers 7.12502
rthumb -2.98837 -54.3278
lclavicle -1.81779e-014 -3.97569e-015
lhumerus -20.6278 -23.9553 87.7926
lradius 37.8326
lwrist 10.9509
lhand -15.7636 -25.9355
lfingers 7.12502
lthumb 10.4282 3.78584
rfemur -35.1227 5.65639 14.2057
rtibia 40.0531
rfoot -20.9101 -8.63349
rtoes -17.1608
lfemur 0.114999 0.335783 -29.3504
ltibia 16.0313
lfoot -17.4874 6.12436
ltoes -2.33178
